<?xml version="1.0" encoding="iso-8859-1"?>
<!-- Generator: Adobe Illustrator 19.0.0, SVG Export Plug-In . SVG Version: 6.00 Build 0)  -->
<svg version="1.1" id="Capa_1" xmlns="http://www.w3.org/2000/svg" xmlns:xlink="http://www.w3.org/1999/xlink" x="0px" y="0px"
	 viewBox="0 0 512 512" style="enable-background:new 0 0 512 512;" xml:space="preserve">
<g>
	<g>
		<g>
			<path d="M507.113,428.415L287.215,47.541c-6.515-11.285-18.184-18.022-31.215-18.022c-13.031,0-24.7,6.737-31.215,18.022
				L4.887,428.415c-6.516,11.285-6.516,24.76,0,36.044c6.515,11.285,18.184,18.022,31.215,18.022h439.796
				c13.031,0,24.7-6.737,31.215-18.022C513.629,453.175,513.629,439.7,507.113,428.415z M481.101,449.441
				c-0.647,1.122-2.186,3.004-5.202,3.004H36.102c-3.018,0-4.556-1.881-5.202-3.004c-0.647-1.121-1.509-3.394,0-6.007
				L250.797,62.559c1.509-2.613,3.907-3.004,5.202-3.004c1.296,0,3.694,0.39,5.202,3.004L481.1,443.434
				C482.61,446.047,481.748,448.32,481.101,449.441z"/>
			<rect x="240.987" y="166.095" width="30.037" height="160.197"/>
			<circle cx="256.005" cy="376.354" r="20.025"/>
		</g>
	</g>
</g>
<g>
</g>
<g>
</g>
<g>
</g>
<g>
</g>
<g>
</g>
<g>
</g>
<g>
</g>
<g>
</g>
<g>
</g>
<g>
</g>
<g>
</g>
<g>
</g>
<g>
</g>
<g>
</g>
<g>
</g>
</svg>
